<svg width="230px" height="182px" viewBox="0 0 230 182" version="1.1" xmlns="http://www.w3.org/2000/svg" xmlns:xlink="http://www.w3.org/1999/xlink">
    <g id="Page-1" stroke="none" stroke-width="1" fill="none" fill-rule="evenodd">
        <g id="Logo" transform="translate(4.000000, 4.081190)">
            <path d="M110.715675,115.082032 C98.1583603,138.470245 71.8075688,156.050594 45.7595577,149.691078 C13.9970006,141.936379 -5.80709747,108.420451 1.52586663,74.8311585 C8.85883074,41.2418659 40.5520127,20.29879 72.3145698,28.0534893 C80.8621099,30.1403364 88.5436327,34.0927811 95.0633308,39.4102068 C101.792855,44.8987651 106.478992,52.5721094 110.407597,60.418653" id="Oval" stroke="#00E7FF" stroke-width="8" stroke-linecap="round" stroke-linejoin="bevel"></path>
            <path d="M110.766734,115.267317 C103.94789,156.402286 82.68634,181.430412 62.2048675,171.389943 C40.2077248,160.606459 26.4924068,114.000078 31.5708473,67.2916775 C36.6492879,20.5832769 58.5983849,-8.5396221 80.5955276,2.24386184 C86.5151221,5.14577749 91.8349568,10.6419447 96.3501704,18.0362192 C102.935227,28.8201429 107.808875,43.6412942 110.335631,60.3402245" id="Oval" stroke="#0057AD" stroke-width="8" stroke-linecap="round" stroke-linejoin="round"></path>
            <path d="M111.025266,115.739411 C117.84411,156.87438 138.28393,181.430412 158.765402,171.389943 C180.762545,160.606459 194.477863,114.000078 189.399423,67.2916775 C184.320982,20.5832769 162.371885,-8.5396221 140.374742,2.24386184 C134.455148,5.14577749 129.135313,10.6419447 124.620099,18.0362192 C118.035043,28.8201429 113.027059,43.2994286 110.500302,59.9983589" id="Oval" stroke="#007FFF" stroke-width="8" stroke-linecap="round" stroke-linejoin="bevel"></path>
            <circle id="Oval" fill="#7700FF" cx="110" cy="87.9188102" r="16"></circle>
            <path d="M92.8189248,75.6594965 C84.3912845,80.4855607 78.7129246,89.5669563 78.7129246,99.974604" id="Oval" stroke="#7700FF" stroke-width="5" stroke-linecap="round" stroke-linejoin="round" stroke-dasharray="7" transform="translate(85.765925, 87.817050) rotate(-30.000000) translate(-85.765925, -87.817050) "></path>
            <path d="M141.818925,75.6594965 C133.391284,80.4855607 127.712925,89.5669563 127.712925,99.974604" id="Oval" stroke="#7700FF" stroke-width="5" stroke-linecap="round" stroke-linejoin="round" stroke-dasharray="14" transform="translate(134.765925, 87.817050) scale(-1, 1) rotate(-30.000000) translate(-134.765925, -87.817050) "></path>
            <path d="M109.601037,103.91881 C118.657934,103.91881 126,96.8415767 126,88.1113668 C126,86.1221054 125.6188,84.2186664 124.922973,82.4652214 C123.766851,79.5518562 120.842549,89.0046145 114.542289,93.9176635 C107.993089,99.0248394 98.7617421,98.5870433 100.476194,100.445707 C102.302234,102.425345 106.151869,103.91881 109.601037,103.91881 Z" id="Oval" fill-opacity="0.372787369" fill="#460097"></path>
            <path d="M110.759941,115.160904 C123.317256,138.549117 150.147051,156.673783 176.195062,150.314267 C207.957619,142.559568 227.761717,109.043641 220.428753,75.454348 C213.095789,41.8650554 181.402607,20.9219795 149.64005,28.6766787 C141.09251,30.7635259 133.410987,34.7159705 126.891289,40.0333963 C120.161765,45.5219545 114.34581,52.61582 110.417204,60.4623636" id="Oval" stroke="#00A1FF" stroke-width="8" stroke-linecap="round" stroke-linejoin="bevel"></path>
        </g>
    </g>
</svg>
